# Blender v2.82 (sub 7) OBJ File: 'room.blend'
# www.blender.org
mtllib cube.mtl
o Cube_Cube.001
v -3.000000 -1.000000 2.000000
v -3.000000 1.000000 2.000000
v -3.000000 -1.000000 -2.000000
v -3.000000 1.000000 -2.000000
v 3.000000 -1.000000 2.000000
v 3.000000 1.000000 2.000000
v 3.000000 -1.000000 -2.000000
v 3.000000 1.000000 -2.000000
v -3.000000 -1.000000 -1.000000
v -3.000000 -1.000000 0.000000
v -3.000000 -1.000000 1.000000
v -3.000000 1.000000 1.000000
v -3.000000 1.000000 0.000000
v -3.000000 1.000000 -1.000000
v 3.000000 -1.000000 1.000000
v 3.000000 -1.000000 0.000000
v 3.000000 -1.000000 -1.000000
v 3.000000 1.000000 -1.000000
v 3.000000 1.000000 0.000000
v 3.000000 1.000000 1.000000
v 4.000000 -1.000000 1.000000
v 4.000000 -1.000000 0.000000
v 4.000000 1.000000 0.000000
v 4.000000 1.000000 1.000000
v 2.000000 -1.000000 -2.000000
v 1.000000 -1.000000 -2.000000
v 0.000000 -1.000000 -2.000000
v -1.000000 -1.000000 -2.000000
v -2.000000 -1.000000 -2.000000
v -2.000000 1.000000 -2.000000
v -1.000000 1.000000 -2.000000
v 0.000000 1.000000 -2.000000
v 1.000000 1.000000 -2.000000
v 2.000000 1.000000 -2.000000
v -2.000000 -1.000000 2.000000
v -1.000000 -1.000000 2.000000
v 0.000000 -1.000000 2.000000
v 1.000000 -1.000000 2.000000
v 2.000000 -1.000000 2.000000
v 2.000000 1.000000 2.000000
v 1.000000 1.000000 2.000000
v 0.000000 1.000000 2.000000
v -1.000000 1.000000 2.000000
v -2.000000 1.000000 2.000000
v 2.000000 1.000000 -1.000000
v 1.000000 1.000000 -1.000000
v 0.000000 1.000000 -1.000000
v -1.000000 1.000000 -1.000000
v -2.000000 1.000000 -1.000000
v 2.000000 1.000000 0.000000
v 1.000000 1.000000 0.000000
v 0.000000 1.000000 0.000000
v -1.000000 1.000000 0.000000
v -2.000000 1.000000 0.000000
v 2.000000 1.000000 1.000000
v 1.000000 1.000000 1.000000
v 0.000000 1.000000 1.000000
v -1.000000 1.000000 1.000000
v -2.000000 1.000000 1.000000
v -2.000000 -1.000000 -1.000000
v -1.000000 -1.000000 -1.000000
v 0.000000 -1.000000 -1.000000
v 1.000000 -1.000000 -1.000000
v 2.000000 -1.000000 -1.000000
v -2.000000 -1.000000 0.000000
v -1.000000 -1.000000 0.000000
v 0.000000 -1.000000 0.000000
v 1.000000 -1.000000 0.000000
v 2.000000 -1.000000 0.000000
v -2.000000 -1.000000 1.000000
v -1.000000 -1.000000 1.000000
v 0.000000 -1.000000 1.000000
v 1.000000 -1.000000 1.000000
v 2.000000 -1.000000 1.000000
v -3.000000 -0.500000 2.000000
v -3.000000 0.000000 2.000000
v -3.000000 0.500000 2.000000
v -3.000000 0.500000 -2.000000
v -3.000000 0.000000 -2.000000
v -3.000000 -0.500000 -2.000000
v 3.000000 0.500000 -2.000000
v 3.000000 0.000000 -2.000000
v 3.000000 -0.500000 -2.000000
v 3.000000 0.500000 2.000000
v 3.000000 0.000000 2.000000
v 3.000000 -0.500000 2.000000
v 3.000000 -0.500000 -1.000000
v 3.000000 0.000000 -1.000000
v 3.000000 0.500000 -1.000000
v 3.000000 -0.500000 0.000000
v 3.000000 0.000000 0.000000
v 3.000000 0.500000 0.000000
v 3.000000 -0.500000 1.000000
v 3.000000 0.000000 1.000000
v 3.000000 0.500000 1.000000
v -3.000000 -0.500000 1.000000
v -3.000000 0.500000 1.000000
v -3.000000 -0.500000 0.000000
v -3.000000 0.500000 0.000000
v -3.000000 -0.500000 -1.000000
v -3.000000 0.000000 -1.000000
v -3.000000 0.500000 -1.000000
v 4.000000 -0.500000 0.000000
v 4.000000 0.000000 0.000000
v 4.000000 0.500000 0.000000
v 4.000000 -0.500000 1.000000
v 4.000000 0.000000 1.000000
v 4.000000 0.500000 1.000000
v 2.000000 -0.500000 2.000000
v 2.000000 0.000000 2.000000
v 2.000000 0.500000 2.000000
v 1.000000 -0.500000 2.000000
v 1.000000 0.000000 2.000000
v 1.000000 0.500000 2.000000
v 0.000000 -0.500000 2.000000
v 0.000000 0.000000 2.000000
v 0.000000 0.500000 2.000000
v -1.000000 -0.500000 2.000000
v -1.000000 0.000000 2.000000
v -1.000000 0.500000 2.000000
v -2.000000 -0.500000 2.000000
v -2.000000 0.000000 2.000000
v -2.000000 0.500000 2.000000
v -2.000000 -0.500000 -2.000000
v -2.000000 0.000000 -2.000000
v -2.000000 0.500000 -2.000000
v -1.000000 -0.500000 -2.000000
v -1.000000 0.000000 -2.000000
v -1.000000 0.500000 -2.000000
v 0.000000 -0.500000 -2.000000
v 0.000000 0.000000 -2.000000
v 0.000000 0.500000 -2.000000
v 1.000000 -0.500000 -2.000000
v 1.000000 0.000000 -2.000000
v 1.000000 0.500000 -2.000000
v 2.000000 -0.500000 -2.000000
v 2.000000 0.000000 -2.000000
v 2.000000 0.500000 -2.000000
v -3.000000 -1.000000 1.500000
v 3.000000 1.000000 1.500000
v -3.000000 1.000000 1.500000
v 3.000000 -1.000000 1.500000
v 2.000000 1.000000 1.500000
v 1.000000 1.000000 1.500000
v 0.000000 1.000000 1.500000
v -1.000000 1.000000 1.500000
v -2.000000 1.000000 1.500000
v -2.000000 -1.000000 1.500000
v -1.000000 -1.000000 1.500000
v 0.000000 -1.000000 1.500000
v 1.000000 -1.000000 1.500000
v 2.000000 -1.000000 1.500000
v -3.000000 -0.500000 1.500000
v -3.000000 0.000000 1.500000
v -3.000000 0.500000 1.500000
v 3.000000 -0.500000 1.500000
v 3.000000 0.000000 1.500000
v 3.000000 0.500000 1.500000
v -3.000000 -1.000000 -0.500000
v -3.000000 1.000000 -0.500000
v 3.000000 -1.000000 -0.500000
v 3.000000 1.000000 -0.500000
v -2.000000 -1.000000 -0.500000
v -1.000000 -1.000000 -0.500000
v 0.000000 -1.000000 -0.500000
v 1.000000 -1.000000 -0.500000
v 2.000000 -1.000000 -0.500000
v 2.000000 1.000000 -0.500000
v 1.000000 1.000000 -0.500000
v 0.000000 1.000000 -0.500000
v -1.000000 1.000000 -0.500000
v -2.000000 1.000000 -0.500000
v -3.000000 -0.500000 -0.500000
v -3.000000 0.000000 -0.500000
v -3.000000 0.500000 -0.500000
v 3.000000 -0.500000 -0.500000
v 3.000000 0.000000 -0.500000
v 3.000000 0.500000 -0.500000
vt 0.968750 1.937500
vt 0.968750 1.937500
vt 0.968750 1.937500
vt 0.968750 1.937500
vt 0.968750 1.937500
vt 0.968750 1.937500
vt 0.968750 1.937500
vt 0.968750 1.937500
vt 0.968750 1.937500
vt 0.968750 1.937500
vt 0.968750 1.937500
vt 0.968750 1.937500
vt 0.312500 0.937500
vt 0.312500 0.937500
vt 0.312500 0.937500
vt 0.687500 0.437500
vt 0.687500 0.437500
vt 0.687500 0.437500
vt 0.687500 0.437500
vt 0.687500 0.437500
vt 0.687500 0.437500
vt 0.687500 0.437500
vt 0.687500 0.437500
vt 0.687500 0.437500
vt 0.687500 0.437500
vt 0.687500 0.437500
vt 0.562500 0.812500
vt 0.562500 0.812500
vt 0.562500 0.812500
vt 0.312500 0.937500
vt 0.312500 0.937500
vt 0.312500 0.937500
vt 0.562500 0.812500
vt 0.562500 0.812500
vt 0.562500 0.812500
vt 0.968750 1.937500
vt 0.968750 1.937500
vt 0.968750 1.937500
vt 0.968750 1.937500
vt 0.968750 1.937500
vt 0.312500 0.937500
vt 0.312500 0.937500
vt 0.312500 0.937500
vt 0.968750 1.937500
vt 0.968750 1.937500
vt 0.968750 1.937500
vt 0.968750 1.937500
vt 0.968750 1.937500
vt 0.968750 1.937500
vt 0.968750 1.937500
vt 0.437500 0.937500
vt 0.437500 0.937500
vt 0.437500 0.937500
vt 0.437500 0.937500
vt 0.437500 0.937500
vt 0.437500 0.937500
vt 0.437500 0.937500
vt 0.437500 0.937500
vt 0.437500 0.937500
vt 0.437500 0.937500
vt 0.312500 0.937500
vt 0.312500 0.937500
vt 0.312500 0.937500
vt 0.562500 0.812500
vt 0.562500 0.812500
vt 0.562500 0.812500
vt 0.312500 0.937500
vt 0.312500 0.937500
vt 0.312500 0.937500
vt 0.562500 0.812500
vt 0.562500 0.812500
vt 0.562500 0.812500
vt 0.312500 0.937500
vt 0.312500 0.937500
vt 0.562500 0.812500
vt 0.562500 0.812500
vt 0.562500 0.812500
vt 0.312500 0.937500
vt 0.312500 0.937500
vt 0.562500 0.812500
vt 0.562500 0.812500
vt 0.312500 0.937500
vt 0.312500 0.937500
vt 0.562500 0.812500
vt 0.562500 0.812500
vt 0.312500 0.937500
vt 0.312500 0.937500
vt 0.312500 0.937500
vt 0.562500 0.812500
vt 0.562500 0.812500
vt 0.562500 0.812500
vt 0.312500 0.937500
vt 0.312500 0.937500
vt 0.312500 0.937500
vt 0.562500 0.812500
vt 0.562500 0.812500
vt 0.562500 0.812500
vt 0.312500 0.937500
vt 0.312500 0.937500
vt 0.312500 0.937500
vt 0.687500 0.437500
vt 0.687500 0.437500
vt 0.687500 0.437500
vt 0.687500 0.437500
vt 0.687500 0.437500
vt 0.687500 0.437500
vt 0.687500 0.437500
vt 0.687500 0.437500
vt 0.687500 0.437500
vt 0.687500 0.437500
vt 0.687500 0.437500
vt 0.687500 0.437500
vt 0.687500 0.437500
vt 0.687500 0.437500
vt 0.687500 0.437500
vt 0.687500 0.437500
vt 0.687500 0.437500
vt 0.687500 0.437500
vt 0.687500 0.437500
vt 0.687500 0.437500
vt 0.687500 0.437500
vt 0.687500 0.437500
vt 0.687500 0.437500
vt 0.687500 0.437500
vt 0.687500 0.437500
vt 0.687500 0.437500
vt 0.687500 0.437500
vt 0.687500 0.437500
vt 0.687500 0.437500
vt 0.687500 0.437500
vt 0.687500 0.437500
vt 0.687500 0.437500
vt 0.687500 0.437500
vt 0.687500 0.437500
vt 0.687500 0.437500
vt 0.562500 0.812500
vt 0.562500 0.812500
vt 0.562500 0.812500
vt 0.312500 0.937500
vt 0.312500 0.937500
vt 0.312500 0.937500
vt 0.562500 0.812500
vt 0.562500 0.812500
vt 0.562500 0.812500
vt 0.312500 0.937500
vt 0.312500 0.937500
vt 0.312500 0.937500
vt 0.562500 0.812500
vt 0.562500 0.812500
vt 0.562500 0.812500
vt 0.968750 1.937500
vt 0.968750 1.937500
vt 0.968750 1.937500
vt 0.968750 1.937500
vt 0.968750 1.937500
vt 0.968750 1.937500
vt 0.968750 1.937500
vt 0.968750 1.937500
vt 0.968750 1.937500
vt 0.968750 1.937500
vt 0.968750 1.937500
vt 0.968750 1.937500
vt 0.968750 1.937500
vt 0.968750 1.937500
vt 0.968750 1.937500
vt 0.968750 1.937500
vt 0.968750 1.937500
vt 0.968750 1.937500
vt 0.968750 1.937500
vt 0.968750 1.937500
vt 0.968750 1.937500
vt 0.968750 1.937500
vt 0.968750 1.937500
vt 0.968750 1.937500
vt 0.968750 1.937500
vt 0.968750 1.937500
vt 0.968750 1.937500
vt 0.968750 1.937500
vt 0.968750 1.937500
vt 0.968750 1.937500
vt 0.968750 1.937500
vt 0.968750 1.937500
vt 0.968750 1.937500
vt 0.968750 1.937500
vt 0.968750 1.937500
vt 0.968750 1.937500
vt 0.968750 1.937500
vt 0.968750 1.937500
vt 0.968750 1.937500
vt 0.968750 1.937500
vt 0.968750 1.937500
vt 0.968750 1.937500
vt 0.968750 1.937500
vt 0.968750 1.937500
vt 0.968750 1.937500
vt 0.968750 1.937500
vt 0.968750 1.937500
vt 0.968750 1.937500
vt 0.968750 1.937500
vt 0.968750 1.937500
vt 0.968750 1.937500
vt 0.968750 1.937500
vt 0.437500 0.937500
vt 0.437500 0.937500
vt 0.437500 0.937500
vt 0.437500 0.937500
vt 0.437500 0.937500
vt 0.437500 0.937500
vt 0.437500 0.937500
vt 0.437500 0.937500
vt 0.437500 0.937500
vt 0.437500 0.937500
vt 0.968750 1.937500
vt 0.968750 1.937500
vt 0.968750 1.937500
vt 0.968750 1.937500
vt 0.968750 1.937500
vt 0.968750 1.937500
vt 0.968750 1.937500
vt 0.968750 1.937500
vt 0.968750 1.937500
vt 0.968750 1.937500
vt 0.968750 1.937500
vt 0.968750 1.937500
vt 0.968750 1.937500
vt 0.968750 1.937500
vt 0.968750 1.937500
vt 0.968750 1.937500
vt 0.968750 1.937500
vt 0.968750 1.937500
vt 0.968750 1.937500
vt 0.968750 1.937500
vt 0.968750 1.937500
vt 0.968750 1.937500
vt 0.968750 1.937500
vt 0.968750 1.937500
vt 0.968750 1.937500
vt 0.968750 1.937500
vt 0.968750 1.937500
vt 0.968750 1.937500
vt 0.968750 1.937500
vt 0.968750 1.937500
vt 0.968750 1.937500
vt 0.968750 1.937500
vt 0.968750 1.937500
vt 0.968750 1.937500
vt 0.968750 1.937500
vt 0.968750 1.937500
vt 0.562500 0.812500
vt 0.312500 0.937500
vt 0.562500 0.812500
vt 0.312500 0.937500
vt 0.562500 0.812500
vt 0.968750 1.937500
vt 0.687500 0.437500
vt 0.312500 0.937500
vt 0.968750 1.937500
vt 0.968750 1.937500
vt 0.562500 0.812500
vt 0.312500 0.937500
vt 0.562500 0.812500
vt 0.312500 0.937500
vt 0.562500 0.812500
vt 0.968750 1.937500
vt 0.968750 1.937500
vt 0.312500 0.937500
vt 0.312500 0.937500
vt 0.687500 0.437500
vt 0.312500 0.937500
vt 0.687500 0.437500
vt 0.562500 0.812500
vt 0.562500 0.812500
vt 0.968750 1.937500
vt 0.312500 0.937500
vt 0.562500 0.812500
vt 0.312500 0.937500
vt 0.562500 0.812500
vt 0.312500 0.937500
vt 0.562500 0.812500
vn 1.0000 0.0000 0.0000
vn 0.0000 0.0000 1.0000
vn -1.0000 0.0000 0.0000
vn 0.0000 0.0000 -1.0000
vn 0.0000 1.0000 0.0000
vn 0.0000 -1.0000 0.0000
usemtl Diffuse
s off
f 78/1/1 14/2/1 102/3/1
f 81/4/2 34/5/2 138/6/2
f 84/7/3 140/8/3 158/9/3
f 77/10/4 44/11/4 123/12/4
f 39/13/5 142/14/5 152/15/5
f 44/16/6 141/17/6 147/18/6
f 49/19/6 4/20/6 30/21/6
f 54/22/6 160/23/6 172/24/6
f 59/25/6 13/26/6 54/22/6
f 64/27/5 7/28/5 25/29/5
f 69/30/5 161/31/5 167/32/5
f 74/33/5 16/34/5 69/35/5
f 89/36/3 8/37/3 81/4/3
f 92/38/3 162/39/3 178/40/3
f 15/41/5 22/42/5 16/43/5
f 97/44/1 141/45/1 155/46/1
f 99/47/1 12/48/1 97/44/1
f 102/3/1 160/49/1 175/50/1
f 108/51/3 23/52/3 105/53/3
f 16/54/2 103/55/2 90/56/2
f 19/57/6 24/58/6 20/59/6
f 20/59/4 108/51/4 95/60/4
f 11/61/5 65/62/5 10/63/5
f 70/64/5 66/65/5 65/66/5
f 71/67/5 67/68/5 66/69/5
f 72/70/5 68/71/5 67/72/5
f 73/73/5 69/30/5 68/74/5
f 10/75/5 163/76/5 159/77/5
f 65/62/5 164/78/5 163/79/5
f 66/65/5 165/80/5 164/81/5
f 67/68/5 166/82/5 165/83/5
f 68/71/5 167/84/5 166/85/5
f 9/86/5 29/87/5 3/88/5
f 60/89/5 28/90/5 29/91/5
f 61/92/5 27/93/5 28/94/5
f 62/95/5 26/96/5 27/97/5
f 63/98/5 25/99/5 26/100/5
f 20/101/6 50/102/6 19/103/6
f 55/104/6 51/105/6 50/102/6
f 56/106/6 52/107/6 51/105/6
f 57/108/6 53/109/6 52/107/6
f 58/110/6 54/22/6 53/109/6
f 19/103/6 168/111/6 162/112/6
f 50/102/6 169/113/6 168/111/6
f 51/105/6 170/114/6 169/113/6
f 52/107/6 171/115/6 170/114/6
f 53/109/6 172/24/6 171/115/6
f 18/116/6 34/117/6 8/118/6
f 45/119/6 33/120/6 34/117/6
f 46/121/6 32/122/6 33/120/6
f 47/123/6 31/124/6 32/122/6
f 48/125/6 30/21/6 31/124/6
f 6/126/6 143/127/6 140/128/6
f 40/129/6 144/130/6 143/127/6
f 41/131/6 145/132/6 144/130/6
f 42/133/6 146/134/6 145/132/6
f 43/135/6 147/18/6 146/134/6
f 1/136/5 148/137/5 139/138/5
f 35/139/5 149/140/5 148/141/5
f 36/142/5 150/143/5 149/144/5
f 37/145/5 151/146/5 150/147/5
f 38/148/5 152/149/5 151/150/5
f 111/151/4 6/152/4 84/7/4
f 114/153/4 40/154/4 111/151/4
f 117/155/4 41/156/4 114/153/4
f 120/157/4 42/158/4 117/155/4
f 123/12/4 43/159/4 120/157/4
f 126/160/2 4/161/2 78/1/2
f 129/162/2 30/163/2 126/160/2
f 132/164/2 31/165/2 129/162/2
f 135/166/2 32/167/2 132/164/2
f 138/6/2 33/168/2 135/166/2
f 25/169/2 133/170/2 26/171/2
f 136/172/2 134/173/2 133/170/2
f 137/174/2 135/166/2 134/173/2
f 26/171/2 130/175/2 27/176/2
f 133/170/2 131/177/2 130/175/2
f 134/173/2 132/164/2 131/177/2
f 27/176/2 127/178/2 28/179/2
f 130/175/2 128/180/2 127/178/2
f 131/177/2 129/162/2 128/180/2
f 28/179/2 124/181/2 29/182/2
f 127/178/2 125/183/2 124/181/2
f 128/180/2 126/160/2 125/183/2
f 29/182/2 80/184/2 3/185/2
f 124/181/2 79/186/2 80/184/2
f 125/183/2 78/1/2 79/186/2
f 35/187/4 118/188/4 36/189/4
f 36/189/4 115/190/4 37/191/4
f 118/188/4 116/192/4 115/190/4
f 119/193/4 117/155/4 116/192/4
f 37/191/4 112/194/4 38/195/4
f 115/190/4 113/196/4 112/194/4
f 116/192/4 114/153/4 113/196/4
f 38/195/4 109/197/4 39/198/4
f 39/198/4 86/199/4 5/200/4
f 109/197/4 85/201/4 86/199/4
f 110/202/4 84/7/4 85/201/4
f 93/203/4 21/204/4 15/205/4
f 94/206/4 106/207/4 93/203/4
f 95/60/4 107/208/4 94/206/4
f 92/209/2 23/52/2 19/57/2
f 91/210/2 105/53/2 92/209/2
f 90/56/2 104/211/2 91/210/2
f 21/204/3 103/55/3 22/212/3
f 106/207/3 104/211/3 103/55/3
f 107/208/3 105/53/3 104/211/3
f 9/213/1 173/214/1 159/215/1
f 100/216/1 174/217/1 173/214/1
f 101/218/1 175/50/1 174/217/1
f 10/219/1 96/220/1 11/221/1
f 11/221/1 153/222/1 139/223/1
f 16/224/3 176/225/3 161/226/3
f 90/227/3 177/228/3 176/225/3
f 91/229/3 178/40/3 177/228/3
f 17/230/3 83/231/3 7/232/3
f 87/233/3 82/234/3 83/231/3
f 88/235/3 81/4/3 82/234/3
f 1/236/4 121/237/4 35/187/4
f 75/238/4 122/239/4 121/237/4
f 76/240/4 123/12/4 122/239/4
f 5/200/3 156/241/3 142/242/3
f 86/199/3 157/243/3 156/241/3
f 85/201/3 158/9/3 157/243/3
f 7/232/2 136/172/2 25/169/2
f 83/231/2 137/174/2 136/172/2
f 82/234/2 138/6/2 137/174/2
f 3/185/1 100/216/1 9/213/1
f 80/184/1 101/218/1 100/216/1
f 79/186/1 102/3/1 101/218/1
f 157/243/3 95/244/3 94/245/3
f 156/241/3 94/245/3 93/246/3
f 142/242/3 93/246/3 15/247/3
f 154/248/1 77/10/1 76/240/1
f 153/222/1 76/240/1 75/238/1
f 139/223/1 75/238/1 1/236/1
f 151/150/5 74/33/5 73/249/5
f 150/147/5 73/73/5 72/250/5
f 149/144/5 72/70/5 71/251/5
f 148/141/5 71/67/5 70/252/5
f 139/138/5 70/64/5 11/253/5
f 146/134/6 59/25/6 58/110/6
f 145/132/6 58/110/6 57/108/6
f 144/130/6 57/108/6 56/106/6
f 143/127/6 56/106/6 55/104/6
f 140/128/6 55/104/6 20/101/6
f 155/46/1 2/254/1 77/10/1
f 147/18/6 12/255/6 59/25/6
f 152/15/5 15/41/5 74/256/5
f 158/9/3 20/257/3 95/244/3
f 177/228/3 89/36/3 88/235/3
f 176/225/3 88/235/3 87/233/3
f 161/226/3 87/233/3 17/230/3
f 159/215/1 98/258/1 10/219/1
f 171/115/6 49/19/6 48/125/6
f 170/114/6 48/125/6 47/123/6
f 169/113/6 47/123/6 46/121/6
f 168/111/6 46/121/6 45/119/6
f 162/112/6 45/119/6 18/116/6
f 166/85/5 64/27/5 63/259/5
f 165/83/5 63/98/5 62/260/5
f 164/81/5 62/95/5 61/261/5
f 163/79/5 61/92/5 60/262/5
f 159/77/5 60/89/5 9/263/5
f 175/50/1 13/264/1 99/47/1
f 178/40/3 18/265/3 89/36/3
f 167/32/5 17/266/5 64/267/5
f 172/24/6 14/268/6 49/19/6
f 78/1/1 4/161/1 14/2/1
f 81/4/2 8/37/2 34/5/2
f 84/7/3 6/152/3 140/8/3
f 77/10/4 2/254/4 44/11/4
f 39/13/5 5/269/5 142/14/5
f 44/16/6 2/270/6 141/17/6
f 49/19/6 14/268/6 4/20/6
f 54/22/6 13/26/6 160/23/6
f 59/25/6 12/255/6 13/26/6
f 64/27/5 17/271/5 7/28/5
f 69/30/5 16/43/5 161/31/5
f 74/33/5 15/272/5 16/34/5
f 89/36/3 18/265/3 8/37/3
f 92/38/3 19/273/3 162/39/3
f 15/41/5 21/274/5 22/42/5
f 97/44/1 12/48/1 141/45/1
f 99/47/1 13/264/1 12/48/1
f 102/3/1 14/2/1 160/49/1
f 108/51/3 24/58/3 23/52/3
f 16/54/2 22/212/2 103/55/2
f 19/57/6 23/52/6 24/58/6
f 20/59/4 24/58/4 108/51/4
f 11/61/5 70/252/5 65/62/5
f 70/64/5 71/251/5 66/65/5
f 71/67/5 72/250/5 67/68/5
f 72/70/5 73/249/5 68/71/5
f 73/73/5 74/256/5 69/30/5
f 10/75/5 65/66/5 163/76/5
f 65/62/5 66/69/5 164/78/5
f 66/65/5 67/72/5 165/80/5
f 67/68/5 68/74/5 166/82/5
f 68/71/5 69/35/5 167/84/5
f 9/86/5 60/262/5 29/87/5
f 60/89/5 61/261/5 28/90/5
f 61/92/5 62/260/5 27/93/5
f 62/95/5 63/259/5 26/96/5
f 63/98/5 64/267/5 25/99/5
f 20/101/6 55/104/6 50/102/6
f 55/104/6 56/106/6 51/105/6
f 56/106/6 57/108/6 52/107/6
f 57/108/6 58/110/6 53/109/6
f 58/110/6 59/25/6 54/22/6
f 19/103/6 50/102/6 168/111/6
f 50/102/6 51/105/6 169/113/6
f 51/105/6 52/107/6 170/114/6
f 52/107/6 53/109/6 171/115/6
f 53/109/6 54/22/6 172/24/6
f 18/116/6 45/119/6 34/117/6
f 45/119/6 46/121/6 33/120/6
f 46/121/6 47/123/6 32/122/6
f 47/123/6 48/125/6 31/124/6
f 48/125/6 49/19/6 30/21/6
f 6/126/6 40/129/6 143/127/6
f 40/129/6 41/131/6 144/130/6
f 41/131/6 42/133/6 145/132/6
f 42/133/6 43/135/6 146/134/6
f 43/135/6 44/16/6 147/18/6
f 1/136/5 35/275/5 148/137/5
f 35/139/5 36/276/5 149/140/5
f 36/142/5 37/277/5 150/143/5
f 37/145/5 38/278/5 151/146/5
f 38/148/5 39/279/5 152/149/5
f 111/151/4 40/154/4 6/152/4
f 114/153/4 41/156/4 40/154/4
f 117/155/4 42/158/4 41/156/4
f 120/157/4 43/159/4 42/158/4
f 123/12/4 44/11/4 43/159/4
f 126/160/2 30/163/2 4/161/2
f 129/162/2 31/165/2 30/163/2
f 132/164/2 32/167/2 31/165/2
f 135/166/2 33/168/2 32/167/2
f 138/6/2 34/5/2 33/168/2
f 25/169/2 136/172/2 133/170/2
f 136/172/2 137/174/2 134/173/2
f 137/174/2 138/6/2 135/166/2
f 26/171/2 133/170/2 130/175/2
f 133/170/2 134/173/2 131/177/2
f 134/173/2 135/166/2 132/164/2
f 27/176/2 130/175/2 127/178/2
f 130/175/2 131/177/2 128/180/2
f 131/177/2 132/164/2 129/162/2
f 28/179/2 127/178/2 124/181/2
f 127/178/2 128/180/2 125/183/2
f 128/180/2 129/162/2 126/160/2
f 29/182/2 124/181/2 80/184/2
f 124/181/2 125/183/2 79/186/2
f 125/183/2 126/160/2 78/1/2
f 35/187/4 121/237/4 118/188/4
f 36/189/4 118/188/4 115/190/4
f 118/188/4 119/193/4 116/192/4
f 119/193/4 120/157/4 117/155/4
f 37/191/4 115/190/4 112/194/4
f 115/190/4 116/192/4 113/196/4
f 116/192/4 117/155/4 114/153/4
f 38/195/4 112/194/4 109/197/4
f 39/198/4 109/197/4 86/199/4
f 109/197/4 110/202/4 85/201/4
f 110/202/4 111/151/4 84/7/4
f 93/203/4 106/207/4 21/204/4
f 94/206/4 107/208/4 106/207/4
f 95/60/4 108/51/4 107/208/4
f 92/209/2 105/53/2 23/52/2
f 91/210/2 104/211/2 105/53/2
f 90/56/2 103/55/2 104/211/2
f 21/204/3 106/207/3 103/55/3
f 106/207/3 107/208/3 104/211/3
f 107/208/3 108/51/3 105/53/3
f 9/213/1 100/216/1 173/214/1
f 100/216/1 101/218/1 174/217/1
f 101/218/1 102/3/1 175/50/1
f 10/219/1 98/258/1 96/220/1
f 11/221/1 96/220/1 153/222/1
f 16/224/3 90/227/3 176/225/3
f 90/227/3 91/229/3 177/228/3
f 91/229/3 92/38/3 178/40/3
f 17/230/3 87/233/3 83/231/3
f 87/233/3 88/235/3 82/234/3
f 88/235/3 89/36/3 81/4/3
f 1/236/4 75/238/4 121/237/4
f 75/238/4 76/240/4 122/239/4
f 76/240/4 77/10/4 123/12/4
f 5/200/3 86/199/3 156/241/3
f 86/199/3 85/201/3 157/243/3
f 85/201/3 84/7/3 158/9/3
f 7/232/2 83/231/2 136/172/2
f 83/231/2 82/234/2 137/174/2
f 82/234/2 81/4/2 138/6/2
f 3/185/1 80/184/1 100/216/1
f 80/184/1 79/186/1 101/218/1
f 79/186/1 78/1/1 102/3/1
f 157/243/3 158/9/3 95/244/3
f 156/241/3 157/243/3 94/245/3
f 142/242/3 156/241/3 93/246/3
f 154/248/1 155/46/1 77/10/1
f 153/222/1 154/248/1 76/240/1
f 139/223/1 153/222/1 75/238/1
f 151/150/5 152/149/5 74/33/5
f 150/147/5 151/146/5 73/73/5
f 149/144/5 150/143/5 72/70/5
f 148/141/5 149/140/5 71/67/5
f 139/138/5 148/137/5 70/64/5
f 146/134/6 147/18/6 59/25/6
f 145/132/6 146/134/6 58/110/6
f 144/130/6 145/132/6 57/108/6
f 143/127/6 144/130/6 56/106/6
f 140/128/6 143/127/6 55/104/6
f 155/46/1 141/45/1 2/254/1
f 147/18/6 141/17/6 12/255/6
f 152/15/5 142/14/5 15/41/5
f 158/9/3 140/8/3 20/257/3
f 177/228/3 178/40/3 89/36/3
f 176/225/3 177/228/3 88/235/3
f 161/226/3 176/225/3 87/233/3
f 159/215/1 173/214/1 98/258/1
f 171/115/6 172/24/6 49/19/6
f 170/114/6 171/115/6 48/125/6
f 169/113/6 170/114/6 47/123/6
f 168/111/6 169/113/6 46/121/6
f 162/112/6 168/111/6 45/119/6
f 166/85/5 167/84/5 64/27/5
f 165/83/5 166/82/5 63/98/5
f 164/81/5 165/80/5 62/95/5
f 163/79/5 164/78/5 61/92/5
f 159/77/5 163/76/5 60/89/5
f 175/50/1 160/49/1 13/264/1
f 178/40/3 162/39/3 18/265/3
f 167/32/5 161/31/5 17/266/5
f 172/24/6 160/23/6 14/268/6
